<svg xmlns="http://www.w3.org/2000/svg" xmlns:xlink="http://www.w3.org/1999/xlink" contentStyleType="text/css" height="636px" preserveAspectRatio="none" style="width:740px;height:636px;background:#FFFFFF;" version="1.1" viewBox="0 0 740 636" width="740px" zoomAndPan="magnify"><defs/><g><!--cluster b43fdd98b1fd705ae4c3a10cf25aad8a--><g id="cluster_b43fdd98b1fd705ae4c3a10cf25aad8a"><polygon fill="none" points="16,16,26,6,386,6,386,517.78,376,527.78,16,527.78,16,16" style="stroke:#181818;stroke-width:1.0;"/><line style="stroke:#181818;stroke-width:1.0;" x1="376" x2="386" y1="16" y2="6"/><line style="stroke:#181818;stroke-width:1.0;" x1="16" x2="376" y1="16" y2="16"/><line style="stroke:#181818;stroke-width:1.0;" x1="376" x2="376" y1="16" y2="527.78"/><text fill="#000000" font-family="sans-serif" font-size="14" font-weight="bold" lengthAdjust="spacing" textLength="67" x="163.5" y="31.9951">Backend</text></g><!--cluster aca33b9c046b2a50b8c3c54cc0380de8--><g id="cluster_aca33b9c046b2a50b8c3c54cc0380de8"><polygon fill="none" points="472,24.15,482,14.15,672,14.15,672,517.78,662,527.78,472,527.78,472,24.15" style="stroke:#181818;stroke-width:1.0;"/><line style="stroke:#181818;stroke-width:1.0;" x1="662" x2="672" y1="24.15" y2="14.15"/><line style="stroke:#181818;stroke-width:1.0;" x1="472" x2="662" y1="24.15" y2="24.15"/><line style="stroke:#181818;stroke-width:1.0;" x1="662" x2="662" y1="24.15" y2="527.78"/><text fill="#000000" font-family="sans-serif" font-size="14" font-weight="bold" lengthAdjust="spacing" textLength="72" x="532" y="40.1451">Frontend</text></g><!--entity 8f92c2ec90ca18a26428d9518f716720--><g id="elem_8f92c2ec90ca18a26428d9518f716720"><rect fill="#F1F1F1" height="111.4844" rx="2.5" ry="2.5" style="stroke:#181818;stroke-width:0.5;" width="337" x="32.5" y="46"/><rect fill="#F1F1F1" height="10" style="stroke:#181818;stroke-width:0.5;" width="15" x="349.5" y="51"/><rect fill="#F1F1F1" height="2" style="stroke:#181818;stroke-width:0.5;" width="4" x="347.5" y="53"/><rect fill="#F1F1F1" height="2" style="stroke:#181818;stroke-width:0.5;" width="4" x="347.5" y="57"/><text fill="#000000" font-family="sans-serif" font-size="14" font-weight="bold" lengthAdjust="spacing" textLength="52" x="47.5" y="78.9951">server</text><text fill="#000000" font-family="sans-serif" font-size="14" lengthAdjust="spacing" textLength="4" x="47.5" y="95.292">&#160;</text><text fill="#000000" font-family="sans-serif" font-size="14" lengthAdjust="spacing" textLength="99" x="47.5" y="111.5889">restart: always</text><text fill="#000000" font-family="sans-serif" font-size="14" lengthAdjust="spacing" textLength="297" x="47.5" y="127.8857">environment: HOST_NAME=localhost:8090</text><text fill="#000000" font-family="sans-serif" font-size="14" lengthAdjust="spacing" textLength="4" x="47.5" y="144.1826">&#160;</text></g><!--entity 69abed94d26e24c8242d28cc902e6f6f--><g id="elem_69abed94d26e24c8242d28cc902e6f6f"><ellipse cx="303" cy="247.49" fill="#F1F1F1" rx="8" ry="8" style="stroke:#181818;stroke-width:0.5;"/><text fill="#000000" font-family="sans-serif" font-size="14" lengthAdjust="spacing" textLength="36" x="285" y="277.4851">8090</text></g><!--entity 05529ff83f8769132474fdb68a8be2c8--><g id="elem_05529ff83f8769132474fdb68a8be2c8"><rect fill="#F1F1F1" height="39.2969" rx="2.5" ry="2.5" style="stroke:#181818;stroke-width:0.5;" width="61" x="170.5" y="472.49"/><polygon fill="#F1F1F1" points="214.5,477.49,214.5,491.49,226.5,491.49,226.5,483.49,220.5,477.49,214.5,477.49" style="stroke:#181818;stroke-width:0.5;"/><line style="stroke:#181818;stroke-width:0.5;" x1="220.5" x2="220.5" y1="477.49" y2="483.49"/><line style="stroke:#181818;stroke-width:0.5;" x1="226.5" x2="220.5" y1="483.49" y2="483.49"/><text fill="#000000" font-family="sans-serif" font-size="14" lengthAdjust="spacing" textLength="31" x="180.5" y="498.4851">/app</text></g><!--entity abf7e71e3ff04bc5cdcc5d79f65cfe34--><g id="elem_abf7e71e3ff04bc5cdcc5d79f65cfe34"><rect fill="#F1F1F1" height="95.1875" rx="2.5" ry="2.5" style="stroke:#181818;stroke-width:0.5;" width="139" x="506.5" y="54.15"/><rect fill="#F1F1F1" height="10" style="stroke:#181818;stroke-width:0.5;" width="15" x="625.5" y="59.15"/><rect fill="#F1F1F1" height="2" style="stroke:#181818;stroke-width:0.5;" width="4" x="623.5" y="61.15"/><rect fill="#F1F1F1" height="2" style="stroke:#181818;stroke-width:0.5;" width="4" x="623.5" y="65.15"/><text fill="#000000" font-family="sans-serif" font-size="14" font-weight="bold" lengthAdjust="spacing" textLength="43" x="521.5" y="87.1451">client</text><text fill="#000000" font-family="sans-serif" font-size="14" lengthAdjust="spacing" textLength="4" x="521.5" y="103.442">&#160;</text><text fill="#000000" font-family="sans-serif" font-size="14" lengthAdjust="spacing" textLength="99" x="521.5" y="119.7389">restart: always</text><text fill="#000000" font-family="sans-serif" font-size="14" lengthAdjust="spacing" textLength="4" x="521.5" y="136.0357">&#160;</text></g><!--entity 908f2cccb7bb9d93cb63737eec776c5c--><g id="elem_908f2cccb7bb9d93cb63737eec776c5c"><ellipse cx="629" cy="247.49" fill="#F1F1F1" rx="8" ry="8" style="stroke:#181818;stroke-width:0.5;"/><text fill="#000000" font-family="sans-serif" font-size="14" lengthAdjust="spacing" textLength="36" x="611" y="277.4851">8091</text></g><!--entity 2cc3d6a72a7c0bdcedfdfb324bdc64ab--><g id="elem_2cc3d6a72a7c0bdcedfdfb324bdc64ab"><rect fill="#F1F1F1" height="39.2969" rx="2.5" ry="2.5" style="stroke:#181818;stroke-width:0.5;" width="169" x="487.5" y="472.49"/><polygon fill="#F1F1F1" points="639.5,477.49,639.5,491.49,651.5,491.49,651.5,483.49,645.5,477.49,639.5,477.49" style="stroke:#181818;stroke-width:0.5;"/><line style="stroke:#181818;stroke-width:0.5;" x1="645.5" x2="645.5" y1="477.49" y2="483.49"/><line style="stroke:#181818;stroke-width:0.5;" x1="651.5" x2="645.5" y1="483.49" y2="483.49"/><text fill="#000000" font-family="sans-serif" font-size="14" lengthAdjust="spacing" textLength="139" x="497.5" y="498.4851">/app/node_modules</text></g><!--entity db617dd6176d809eddb9230d7f6f252c--><g id="elem_db617dd6176d809eddb9230d7f6f252c"><ellipse cx="429" cy="382.49" fill="#F1F1F1" rx="8" ry="8" style="stroke:#181818;stroke-width:0.5;"/><text fill="#000000" font-family="sans-serif" font-size="14" lengthAdjust="spacing" textLength="36" x="411" y="412.4851">8090</text></g><!--entity b4785db8e31df5ca2569eee5682a4ea7--><g id="elem_b4785db8e31df5ca2569eee5682a4ea7"><ellipse cx="715" cy="382.49" fill="#F1F1F1" rx="8" ry="8" style="stroke:#181818;stroke-width:0.5;"/><text fill="#000000" font-family="sans-serif" font-size="14" lengthAdjust="spacing" textLength="36" x="697" y="412.4851">8091</text></g><!--entity 7700a6b29ebdafa8451100473b3a04af--><g id="elem_7700a6b29ebdafa8451100473b3a04af"><rect fill="#F1F1F1" height="39.2969" rx="2.5" ry="2.5" style="stroke:#181818;stroke-width:0.5;" width="82" x="160" y="590.78"/><polygon fill="#F1F1F1" points="225,595.78,225,609.78,237,609.78,237,601.78,231,595.78,225,595.78" style="stroke:#181818;stroke-width:0.5;"/><line style="stroke:#181818;stroke-width:0.5;" x1="231" x2="231" y1="595.78" y2="601.78"/><line style="stroke:#181818;stroke-width:0.5;" x1="237" x2="231" y1="601.78" y2="601.78"/><text fill="#000000" font-family="sans-serif" font-size="14" lengthAdjust="spacing" textLength="52" x="170" y="616.7751">./server</text></g><!--entity d4aab8ea308346f62371107a5f797395--><g id="elem_d4aab8ea308346f62371107a5f797395"><rect fill="#F1F1F1" height="39.2969" rx="2.5" ry="2.5" style="stroke:#181818;stroke-width:0.5;" width="184" x="480" y="590.78"/><polygon fill="#F1F1F1" points="647,595.78,647,609.78,659,609.78,659,601.78,653,595.78,647,595.78" style="stroke:#181818;stroke-width:0.5;"/><line style="stroke:#181818;stroke-width:0.5;" x1="653" x2="653" y1="595.78" y2="601.78"/><line style="stroke:#181818;stroke-width:0.5;" x1="659" x2="653" y1="601.78" y2="601.78"/><text fill="#000000" font-family="sans-serif" font-size="14" lengthAdjust="spacing" textLength="154" x="490" y="616.7751">./client/node_modules</text></g><!--link 8f92c2ec90ca18a26428d9518f716720 to 69abed94d26e24c8242d28cc902e6f6f--><g id="link_8f92c2ec90ca18a26428d9518f716720_69abed94d26e24c8242d28cc902e6f6f"><path codeLine="27" d="M240.14,157.91 C261.94,188.63 286.8,223.66 297.56,238.82 " fill="none" id="8f92c2ec90ca18a26428d9518f716720-69abed94d26e24c8242d28cc902e6f6f" style="stroke:#181818;stroke-width:1.0;"/></g><!--link 69abed94d26e24c8242d28cc902e6f6f to db617dd6176d809eddb9230d7f6f252c--><g id="link_69abed94d26e24c8242d28cc902e6f6f_db617dd6176d809eddb9230d7f6f252c"><path codeLine="28" d="M310.5,256.41 C332.97,280.12 399.49,350.34 421.69,373.77 " fill="none" id="69abed94d26e24c8242d28cc902e6f6f-db617dd6176d809eddb9230d7f6f252c" style="stroke:#181818;stroke-width:1.0;"/></g><!--link 05529ff83f8769132474fdb68a8be2c8 to 7700a6b29ebdafa8451100473b3a04af--><g id="link_05529ff83f8769132474fdb68a8be2c8_7700a6b29ebdafa8451100473b3a04af"><path codeLine="29" d="M201,512.08 C201,533.7 201,568.87 201,590.5 " fill="none" id="05529ff83f8769132474fdb68a8be2c8-7700a6b29ebdafa8451100473b3a04af" style="stroke:#181818;stroke-width:1.0;"/><text fill="#000000" font-family="sans-serif" font-size="13" lengthAdjust="spacing" textLength="14" x="202" y="556.8469">rw</text></g><!--link 8f92c2ec90ca18a26428d9518f716720 to 05529ff83f8769132474fdb68a8be2c8--><g id="link_8f92c2ec90ca18a26428d9518f716720_05529ff83f8769132474fdb68a8be2c8"><path codeLine="30" d="M201,157.98 C201,246.36 201,409.37 201,466.06 " fill="none" id="8f92c2ec90ca18a26428d9518f716720-to-05529ff83f8769132474fdb68a8be2c8" style="stroke:#181818;stroke-width:1.0;stroke-dasharray:7.0,7.0;"/><polygon fill="#181818" points="201,472.06,205,463.06,201,467.06,197,463.06,201,472.06" style="stroke:#181818;stroke-width:1.0;"/><text fill="#000000" font-family="sans-serif" font-size="13" lengthAdjust="spacing" textLength="23" x="202" y="319.5569">use</text></g><!--link abf7e71e3ff04bc5cdcc5d79f65cfe34 to 908f2cccb7bb9d93cb63737eec776c5c--><g id="link_abf7e71e3ff04bc5cdcc5d79f65cfe34_908f2cccb7bb9d93cb63737eec776c5c"><path codeLine="31" d="M593.35,149.81 C605.25,182.07 619.95,221.93 626.09,238.59 " fill="none" id="abf7e71e3ff04bc5cdcc5d79f65cfe34-908f2cccb7bb9d93cb63737eec776c5c" style="stroke:#181818;stroke-width:1.0;"/></g><!--link 908f2cccb7bb9d93cb63737eec776c5c to b4785db8e31df5ca2569eee5682a4ea7--><g id="link_908f2cccb7bb9d93cb63737eec776c5c_b4785db8e31df5ca2569eee5682a4ea7"><path codeLine="32" d="M634.12,256.41 C649.45,280.12 694.86,350.34 710.01,373.77 " fill="none" id="908f2cccb7bb9d93cb63737eec776c5c-b4785db8e31df5ca2569eee5682a4ea7" style="stroke:#181818;stroke-width:1.0;"/></g><!--link 2cc3d6a72a7c0bdcedfdfb324bdc64ab to d4aab8ea308346f62371107a5f797395--><g id="link_2cc3d6a72a7c0bdcedfdfb324bdc64ab_d4aab8ea308346f62371107a5f797395"><path codeLine="33" d="M572,512.08 C572,533.7 572,568.87 572,590.5 " fill="none" id="2cc3d6a72a7c0bdcedfdfb324bdc64ab-d4aab8ea308346f62371107a5f797395" style="stroke:#181818;stroke-width:1.0;"/><text fill="#000000" font-family="sans-serif" font-size="13" lengthAdjust="spacing" textLength="14" x="573" y="556.8469">rw</text></g><!--link abf7e71e3ff04bc5cdcc5d79f65cfe34 to 2cc3d6a72a7c0bdcedfdfb324bdc64ab--><g id="link_abf7e71e3ff04bc5cdcc5d79f65cfe34_2cc3d6a72a7c0bdcedfdfb324bdc64ab"><path codeLine="34" d="M575.52,149.59 C574.63,235.34 572.8518,408.0703 572.2518,466.3303 " fill="none" id="abf7e71e3ff04bc5cdcc5d79f65cfe34-to-2cc3d6a72a7c0bdcedfdfb324bdc64ab" style="stroke:#181818;stroke-width:1.0;stroke-dasharray:7.0,7.0;"/><polygon fill="#181818" points="572.19,472.33,576.2825,463.3717,572.2415,467.3303,568.2829,463.2893,572.19,472.33" style="stroke:#181818;stroke-width:1.0;"/><text fill="#000000" font-family="sans-serif" font-size="13" lengthAdjust="spacing" textLength="23" x="574" y="319.5569">use</text></g><!--SRC=[XP9FYnGn4CNl-HIXJpgmC-dypu22Wk95FRWtaQLILT71dkvbUdPN4R-xcTvTT5J8fGbDwjLxlpmOXkbkl_ks6p-BSIAMtKl0hpnI9s6MsPf2b6Bk2mNbW2qQw1KMxG0eWlmX94xxwsdayIXZIHerOr88VGJjhOwKN1zBw7tGIduKgzNCXri-h5P277W-mk6ubJ3SmVTPy7YxEqpZlafjvPlt7owlthru- -hPC24CNwRvk8qgAI4-YITFPNSwBnPzWioKB6dFscBKLfEEM4reziKNKLVi2k1HTXkulbvcb7CwbH9DYS6dtcWRRA7i8yJC6gFu-S3YTVLpV8G12CRaXChwhC6f7D6WiuZAH4KSps50Be53pwOKPJCw94H78HNliB2n2mmSTlNk_s3yZjalovEAHIDY3ZadIWQpDy44PWp1L_M_OcvE_g_s4zqCF2y2TTYGXw0XeCg4J8LAhj7hsLl8DVCPrugZ3qJruwd-PAASj54KAbFjD9xRopP4HpcowQau1EryOcRdemRB4FwmjzxSLs2P2q4fg3WJPu82qRg-Lye6amqe2-LixfxMlz780jJLO5GqjhwvDg6g170bf62I4yrYNj15kqYj2ujA4rkhUujA2ulSokvmrxM3hTUqNZzl5lwaTpDp9vgjFRbhTh5rOL5fLgRLs7lUZRT_9DKCza2gkVI1r2y0]--></g></svg>